<svg fill="none" height="18" viewBox="0 0 31 18" width="31" xmlns="http://www.w3.org/2000/svg">
  <path
    d="M8.54095 6.56147C8.54095 6.9311 8.58126 7.23079 8.65182 7.45057C8.73246 7.67035 8.83326 7.9101 8.97438 8.16984C9.02478 8.24976 9.04494 8.32968 9.04494 8.39961C9.04494 8.49951 8.98446 8.5994 8.85342 8.6993L8.21839 9.11888C8.12767 9.17882 8.03695 9.20879 7.95632 9.20879C7.85552 9.20879 7.75472 9.15884 7.65392 9.06893C7.5128 8.91908 7.39185 8.75924 7.29105 8.5994C7.19025 8.42958 7.08945 8.23977 6.97857 8.01C6.19235 8.92907 5.20452 9.3886 4.01511 9.3886C3.1684 9.3886 2.49305 9.14885 1.99914 8.66933C1.50523 8.18982 1.25323 7.55047 1.25323 6.75128C1.25323 5.90214 1.55563 5.21284 2.1705 4.69337C2.78537 4.17389 3.60183 3.91416 4.64005 3.91416C4.98277 3.91416 5.33556 3.94413 5.70851 3.99407C6.08147 4.04402 6.4645 4.12394 6.86769 4.21385V3.48459C6.86769 2.72536 6.70642 2.1959 6.39394 1.88621C6.07139 1.57653 5.52708 1.42668 4.75093 1.42668C4.39814 1.42668 4.03526 1.46664 3.66231 1.55655C3.28936 1.64645 2.92648 1.75634 2.57369 1.8962C2.41241 1.96613 2.29146 2.00609 2.2209 2.02607C2.15034 2.04605 2.09994 2.05604 2.05962 2.05604C1.9185 2.05604 1.84794 1.95614 1.84794 1.74635V1.25685C1.84794 1.09701 1.8681 0.977134 1.9185 0.907205C1.9689 0.837276 2.05962 0.767346 2.20074 0.697417C2.55353 0.5176 2.97688 0.367752 3.47079 0.247873C3.96471 0.118005 4.48886 0.0580657 5.04325 0.0580657C6.24275 0.0580657 7.11969 0.327792 7.68416 0.867245C8.23855 1.4067 8.52078 2.22587 8.52078 3.32475V6.56147H8.54095ZM4.44854 8.07993C4.78117 8.07993 5.12389 8.01999 5.48676 7.90011C5.84963 7.78024 6.17219 7.56046 6.44434 7.26076C6.60562 7.07095 6.72658 6.86117 6.78706 6.62141C6.84754 6.38165 6.88785 6.09195 6.88785 5.75229V5.33272C6.59554 5.26279 6.28306 5.20285 5.96051 5.16289C5.63796 5.12293 5.32548 5.10295 5.01301 5.10295C4.33766 5.10295 3.84375 5.23282 3.51111 5.50254C3.17848 5.77227 3.0172 6.15189 3.0172 6.65138C3.0172 7.1209 3.13816 7.47055 3.39016 7.71031C3.63207 7.96005 3.98487 8.07993 4.44854 8.07993ZM12.5426 9.15884C12.3612 9.15884 12.2402 9.12887 12.1596 9.05894C12.079 8.999 12.0084 8.85914 11.9479 8.66933L9.57917 0.947164C9.51869 0.747367 9.48845 0.617498 9.48845 0.547569C9.48845 0.387731 9.56909 0.297823 9.73036 0.297823H10.7182C10.9097 0.297823 11.0407 0.327792 11.1113 0.397721C11.1919 0.45766 11.2524 0.597519 11.3129 0.787326L13.0063 7.40062L14.5788 0.787326C14.6292 0.587529 14.6896 0.45766 14.7703 0.397721C14.8509 0.337782 14.992 0.297823 15.1735 0.297823H15.9799C16.1714 0.297823 16.3024 0.327792 16.383 0.397721C16.4637 0.45766 16.5342 0.597519 16.5746 0.787326L18.1672 7.48054L19.911 0.787326C19.9715 0.587529 20.042 0.45766 20.1126 0.397721C20.1932 0.337782 20.3243 0.297823 20.5057 0.297823H21.4431C21.6044 0.297823 21.6951 0.377741 21.6951 0.547569C21.6951 0.597519 21.685 0.647468 21.6749 0.707407C21.6649 0.767346 21.6447 0.847265 21.6044 0.957154L19.1752 8.67932C19.1147 8.87912 19.0441 9.00899 18.9635 9.06893C18.8828 9.12887 18.7518 9.16883 18.5804 9.16883H17.7136C17.5221 9.16883 17.391 9.13886 17.3104 9.06893C17.2297 8.999 17.1592 8.86913 17.1189 8.66933L15.5565 2.22587L14.0042 8.65934C13.9538 8.85914 13.8933 8.98901 13.8127 9.05894C13.7321 9.12887 13.5909 9.15884 13.4095 9.15884H12.5426ZM25.4952 9.42856C24.9711 9.42856 24.4469 9.36862 23.9429 9.24875C23.4389 9.12887 23.0458 8.999 22.7837 8.84915C22.6225 8.75924 22.5116 8.65934 22.4713 8.56944C22.4309 8.47953 22.4108 8.37963 22.4108 8.28972V7.78023C22.4108 7.57045 22.4914 7.47055 22.6426 7.47055C22.7031 7.47055 22.7636 7.48054 22.824 7.50052C22.8845 7.5205 22.9752 7.56046 23.076 7.60042C23.4188 7.75027 23.7917 7.87014 24.1848 7.95006C24.588 8.02998 24.9811 8.06994 25.3843 8.06994C26.0194 8.06994 26.5133 7.96005 26.856 7.74028C27.1987 7.5205 27.3801 7.20082 27.3801 6.79124C27.3801 6.51152 27.2894 6.28175 27.108 6.09195C26.9265 5.90214 26.5838 5.73231 26.0899 5.57247L24.6283 5.12293C23.8925 4.89316 23.3482 4.55351 23.0156 4.10396C22.6829 3.66441 22.5116 3.1749 22.5116 2.65543C22.5116 2.23586 22.6023 1.86623 22.7837 1.54656C22.9652 1.22688 23.2071 0.947164 23.5095 0.727387C23.8119 0.49762 24.1546 0.327792 24.5578 0.207914C24.961 0.0880353 25.3843 0.0380859 25.8278 0.0380859C26.0496 0.0380859 26.2814 0.0480758 26.5032 0.0780454C26.735 0.108015 26.9467 0.147974 27.1584 0.187934C27.36 0.237883 27.5515 0.287833 27.7329 0.347772C27.9144 0.407711 28.0555 0.46765 28.1563 0.52759C28.2974 0.607509 28.3982 0.687427 28.4587 0.777336C28.5191 0.857255 28.5494 0.967144 28.5494 1.107V1.57653C28.5494 1.78631 28.4687 1.8962 28.3176 1.8962C28.2369 1.8962 28.1059 1.85624 27.9345 1.77632C27.36 1.51659 26.7149 1.38672 25.9992 1.38672C25.4246 1.38672 24.9711 1.47663 24.6586 1.66643C24.3461 1.85624 24.1848 2.14595 24.1848 2.55553C24.1848 2.83525 24.2856 3.07501 24.4872 3.26481C24.6888 3.45462 25.0618 3.64443 25.596 3.81426L27.0273 4.2638C27.7531 4.49357 28.2772 4.81324 28.5897 5.22283C28.9022 5.63241 29.0534 6.10194 29.0534 6.62141C29.0534 7.05097 28.9627 7.44058 28.7913 7.78023C28.6099 8.11989 28.3679 8.41959 28.0555 8.65934C27.743 8.90909 27.37 9.08891 26.9366 9.21878C26.483 9.35863 26.0093 9.42856 25.4952 9.42856Z"
    fill="#252F3E"/>
  <path clip-rule="evenodd"
        d="M27.4002 14.284C24.0839 16.7116 19.2658 18.0003 15.123 18.0003C9.31698 18.0003 4.08556 15.8724 0.134265 12.336C-0.17821 12.0563 0.104025 11.6767 0.476979 11.8964C4.75082 14.354 10.0226 15.8424 15.4758 15.8424C19.1549 15.8424 23.1969 15.0832 26.9164 13.5248C27.4707 13.2751 27.9445 13.8844 27.4002 14.284Z"
        fill="#FF9900" fill-rule="evenodd"/>
  <path clip-rule="evenodd"
        d="M28.7812 12.7254C28.3578 12.1859 25.979 12.4656 24.9005 12.5955C24.5779 12.6354 24.5275 12.3557 24.8198 12.1459C26.7148 10.8273 29.8295 11.2069 30.1924 11.6464C30.5552 12.096 30.0916 15.1829 28.3175 16.6614C28.0454 16.8911 27.7833 16.7713 27.9042 16.4716C28.3074 15.4826 29.2045 13.2548 28.7812 12.7254Z"
        fill="#FF9900" fill-rule="evenodd"/>
</svg>
