<svg width="26" height="26" viewBox="0 0 26 26" fill="none" xmlns="http://www.w3.org/2000/svg">
  <path d="M10.0557 3.933H16.0058L9.82899 22.2341C9.76551 22.4222 9.64465 22.5856 9.48342 22.7014C9.3222 22.8171 9.12872 22.8794 8.93024 22.8795H4.2996C4.14922 22.8795 4.00099 22.8437 3.86718 22.7751C3.73338 22.7064 3.61783 22.6069 3.53012 22.4848C3.4424 22.3626 3.38503 22.2213 3.36275 22.0726C3.34047 21.9239 3.35392 21.772 3.40199 21.6295L9.1567 4.57833C9.22016 4.39019 9.34104 4.2267 9.50231 4.11089C9.66359 3.99508 9.85713 3.93278 10.0557 3.93277V3.933Z" fill="url(#paint0_linear_10_179)"/>
  <path d="M18.7022 16.208H9.26677C9.17905 16.2079 9.09333 16.2343 9.02078 16.2836C8.94824 16.3329 8.89222 16.4029 8.86004 16.4845C8.82786 16.5661 8.821 16.6555 8.84035 16.7411C8.85971 16.8266 8.90438 16.9044 8.96855 16.9642L15.0315 22.6232C15.2081 22.7878 15.4405 22.8794 15.6819 22.8793H21.0246L18.7022 16.208Z" fill="#0078D4"/>
  <path d="M10.0557 3.93287C9.85498 3.9321 9.65927 3.99553 9.49716 4.11389C9.33506 4.23225 9.21505 4.39935 9.15466 4.59076L3.40909 21.6138C3.35778 21.7568 3.34167 21.9101 3.36213 22.0606C3.38258 22.2112 3.439 22.3546 3.5266 22.4787C3.6142 22.6029 3.73041 22.7041 3.8654 22.7738C4.00039 22.8435 4.15019 22.8797 4.30213 22.8793H9.05228C9.2292 22.8477 9.39455 22.7697 9.53146 22.6533C9.66836 22.5368 9.77191 22.3862 9.83152 22.2166L10.9773 18.8399L15.07 22.6572C15.2415 22.7991 15.4567 22.8775 15.6792 22.8793H21.002L18.6675 16.208L11.8621 16.2096L16.0273 3.93287H10.0557Z" fill="url(#paint1_linear_10_179)"/>
  <path d="M17.6554 4.57718C17.592 4.38935 17.4713 4.22613 17.3103 4.11053C17.1492 3.99492 16.956 3.93275 16.7578 3.93277H10.1265C10.3247 3.93278 10.5179 3.99497 10.6789 4.11057C10.84 4.22617 10.9607 4.38937 11.0241 4.57718L16.779 21.629C16.8271 21.7715 16.8406 21.9235 16.8183 22.0722C16.7961 22.221 16.7387 22.3623 16.651 22.4845C16.5633 22.6067 16.4477 22.7063 16.3139 22.775C16.1801 22.8436 16.0318 22.8795 15.8814 22.8795H22.5129C22.6633 22.8794 22.8116 22.8436 22.9453 22.7749C23.0791 22.7062 23.1947 22.6066 23.2824 22.4844C23.3701 22.3622 23.4274 22.2209 23.4496 22.0722C23.4719 21.9234 23.4584 21.7715 23.4103 21.629L17.6554 4.57718Z" fill="url(#paint2_linear_10_179)"/>
  <defs>
    <linearGradient id="paint0_linear_10_179" x1="12.2243" y1="5.337" x2="6.045" y2="23.5922" gradientUnits="userSpaceOnUse">
      <stop stop-color="#114A8B"/>
      <stop offset="1" stop-color="#0669BC"/>
    </linearGradient>
    <linearGradient id="paint1_linear_10_179" x1="14.1546" y1="13.8443" x2="12.7252" y2="14.3276" gradientUnits="userSpaceOnUse">
      <stop stop-opacity="0.3"/>
      <stop offset="0.071" stop-opacity="0.2"/>
      <stop offset="0.321" stop-opacity="0.1"/>
      <stop offset="0.623" stop-opacity="0.05"/>
      <stop offset="1" stop-opacity="0"/>
    </linearGradient>
    <linearGradient id="paint2_linear_10_179" x1="13.3684" y1="4.80433" x2="20.1514" y2="22.8756" gradientUnits="userSpaceOnUse">
      <stop stop-color="#3CCBF4"/>
      <stop offset="1" stop-color="#2892DF"/>
    </linearGradient>
  </defs>
</svg>
