<svg width="200" height="131" viewBox="0 0 200 131" fill="none" xmlns="http://www.w3.org/2000/svg">
<rect x="0.5" y="0.999969" width="199" height="129" rx="3.5" fill="#161517" stroke="#414141"/>
<rect x="6" y="29.9999" width="20" height="4" rx="2" fill="#DFDFDF"/>
<rect x="40" y="9.99994" width="27" height="4" rx="2" fill="white"/>
<rect x="40" y="31.9999" width="31" height="4" rx="2" fill="#6C9AF3"/>
<rect x="40" y="41.9999" width="24" height="4" rx="2" fill="white"/>
<rect x="68" y="41.9999" width="40" height="4" rx="2" fill="#FFB864"/>
<rect x="40" y="21.9999" width="19" height="4" rx="2" fill="white"/>
<rect x="63" y="21.9999" width="29" height="4" rx="2" fill="#FFB864"/>
<rect x="96" y="21.9999" width="29" height="4" rx="2" fill="#99FFA1"/>
<rect x="129" y="21.9999" width="24" height="4" rx="2" fill="white"/>
<rect x="6" y="38.9999" width="20" height="4" rx="2" fill="#DFDFDF"/>
<rect x="6" y="48.9999" width="20" height="4" rx="2" fill="#DFDFDF"/>
<rect x="6" y="58.9999" width="20" height="4" rx="2" fill="#DFDFDF"/>
<line x1="32.5" y1="1.99994" x2="32.5" y2="130" stroke="#414141"/>
<rect width="1.12496" height="10.1247" rx="0.273643" transform="matrix(1 0 0 -1 11.5 20.0624)" fill="white"/>
<rect width="1.12496" height="10.1247" rx="0.273643" transform="matrix(1 0 0 -1 13.75 20.0624)" fill="white"/>
<rect width="1.12496" height="10.1247" rx="0.273643" transform="matrix(1 0 0 -1 16.0002 20.0624)" fill="white"/>
<rect width="1.12496" height="10.1247" rx="0.273643" transform="matrix(1 0 0 -1 18.2496 20.0624)" fill="white"/>
<rect width="1.12496" height="2.24992" rx="0.273643" transform="matrix(1 0 0 -1 20.5002 16.1249)" fill="white"/>
</svg>
