<svg fill="none" height="22" viewBox="0 0 26 22" width="26" xmlns="http://www.w3.org/2000/svg">
  <g clip-path="url(#clip0_2622_1624)">
    <path
      d="M16.546 6.32309L17.3788 6.33731L19.6416 4.0745L19.7513 3.11575C17.9565 1.51675 15.5868 0.542969 12.9974 0.542969C8.30925 0.542969 4.35237 3.73284 3.18115 8.05372C3.42815 7.88147 3.95628 8.01066 3.95628 8.01066L8.47784 7.26722C8.47784 7.26722 8.71021 6.8825 8.82803 6.90159C9.35674 6.32073 10.001 5.85673 10.7194 5.53933C11.4379 5.22193 12.2148 5.05813 13.0002 5.05844C14.3408 5.06128 15.5758 5.53497 16.546 6.31862V6.32309Z"
      fill="#EA4335"/>
    <path
      d="M22.8192 8.06275C22.2939 6.12494 21.2113 4.41381 19.75 3.11584L16.5459 6.31994C17.8297 7.35588 18.6531 8.94106 18.6531 10.7156V11.2811C20.2119 11.2811 21.4782 12.5502 21.4782 14.1061C21.4782 15.6649 20.2091 16.9312 18.6531 16.9312H13.003L12.4375 17.4999V20.8905L13.003 21.4532H18.6531C20.6008 21.4505 22.4679 20.6756 23.8451 19.2984C25.2224 17.9213 25.9974 16.0542 26.0002 14.1065C25.9973 11.6061 24.7408 9.39403 22.8192 8.06316V8.06275Z"
      fill="#4285F4"/>
    <path
      d="M7.3473 21.4569H12.9942V16.9313H7.3473C6.9461 16.9313 6.54958 16.8452 6.18461 16.6786L5.36927 16.9284L3.10645 19.1912L2.9082 19.955C4.18338 20.9278 5.74301 21.4544 7.34689 21.4537L7.3473 21.4569Z"
      fill="#34A853"/>
    <path
      d="M7.34703 6.76282C5.39937 6.7655 3.53225 7.54037 2.15501 8.91754C0.777765 10.2947 0.00279435 12.1618 0 14.1094C0 16.4953 1.14278 18.6168 2.91119 19.9607L6.18719 16.6847C5.69132 16.4611 5.27048 16.0992 4.97512 15.6424C4.67976 15.1857 4.52242 14.6534 4.52197 14.1094C4.52197 12.5507 5.79109 11.2844 7.34703 11.2844C8.49266 11.2844 9.47741 11.975 9.92266 12.95L13.1987 9.67401C11.8552 7.9056 9.73334 6.76282 7.34744 6.76282H7.34703Z"
      fill="#FBBC05"/>
  </g>
  <defs>
    <clipPath id="clip0_2622_1624">
      <rect fill="white" height="21" transform="translate(0 0.5)" width="26.0001"/>
    </clipPath>
  </defs>
</svg>
