<svg width="38" height="32" viewBox="0 0 38 32" fill="none" xmlns="http://www.w3.org/2000/svg">
  <path d="M13.0576 31.0693H32.3579C33.9722 31.0693 35.2088 30.6445 36.0679 29.7949C36.9269 28.9453 37.3564 27.7134 37.3564 26.0991V12.4771C37.3564 10.8817 36.9269 9.65446 36.0679 8.79541C35.2088 7.93636 33.9722 7.50684 32.3579 7.50684H13.0576C11.4434 7.50684 10.2067 7.93636 9.34766 8.79541C8.48861 9.64502 8.05908 10.8722 8.05908 12.4771V26.0991C8.05908 27.7134 8.48861 28.9453 9.34766 29.7949C10.2067 30.6445 11.4434 31.0693 13.0576 31.0693ZM13.0576 5.21289H29.8232V5.08545C29.7572 3.59391 29.2946 2.45166 28.4355 1.65869C27.5859 0.865723 26.387 0.469238 24.8389 0.469238H5.60938C3.99512 0.469238 2.75846 0.898763 1.89941 1.75781C1.04036 2.60742 0.61084 3.83464 0.61084 5.43945V19.0615C0.61084 20.638 1.02148 21.8511 1.84277 22.7007C2.6735 23.5503 3.8724 23.9893 5.43945 24.0176H5.75098V12.4771C5.75098 10.9855 6.04834 9.69694 6.64307 8.61133C7.23779 7.51628 8.07796 6.67611 9.16357 6.09082C10.2586 5.50553 11.5566 5.21289 13.0576 5.21289ZM18.5518 24.3008V14.3179C18.5518 13.9686 18.7028 13.7279 19.0049 13.5957C19.307 13.4541 19.609 13.473 19.9111 13.6523L28.3223 18.5801C28.6149 18.7406 28.7612 18.986 28.7612 19.3164C28.7707 19.6374 28.6291 19.8828 28.3364 20.0527L19.9111 24.9521C19.609 25.1315 19.307 25.1551 19.0049 25.0229C18.7028 24.8813 18.5518 24.6406 18.5518 24.3008Z" fill="url(#paint0_linear_542_3108)"/>
  <defs>
    <linearGradient id="paint0_linear_542_3108" x1="-3" y1="15.5" x2="41" y2="15.5" gradientUnits="userSpaceOnUse">
      <stop stop-color="#FFC53D"/>
      <stop offset="1" stop-color="#FF9900"/>
    </linearGradient>
  </defs>
</svg>
