<svg width="214" height="27" viewBox="0 0 214 27" fill="none" xmlns="http://www.w3.org/2000/svg">
  <g clip-path="url(#clip0_238_1416)">
    <path
      d="M45.7536 16.2176C45.7536 16.6706 45.7989 17.1689 45.9348 17.6219C46.0707 17.9844 46.2519 18.3921 46.4331 18.7545C46.5237 18.8451 46.5237 18.981 46.5237 19.1169C46.5237 19.2981 46.3878 19.4793 46.2066 19.5699L45.2553 20.2041C45.1194 20.2947 44.9835 20.34 44.8476 20.34C44.6664 20.34 44.4852 20.2494 44.3946 20.1135C44.1681 19.887 43.9869 19.6605 43.851 19.3887C43.7151 19.1169 43.5339 18.7998 43.3526 18.4374C42.2201 19.8417 40.544 20.6118 38.7773 20.6118C37.6448 20.6571 36.5123 20.2947 35.6515 19.4793C34.8814 18.6639 34.4737 17.5766 34.519 16.4894C34.4737 15.2663 34.972 14.0885 35.8781 13.3184C36.9653 12.4577 38.3243 12.05 39.6833 12.0953C40.2269 12.0953 40.7705 12.1406 41.3141 12.2312C41.903 12.3218 42.4919 12.4124 43.0808 12.5483V11.4158C43.1714 10.5098 42.8996 9.60374 42.356 8.92423C41.6312 8.38062 40.7252 8.10882 39.8192 8.19942C39.2756 8.19942 38.6867 8.29002 38.1431 8.42592C37.5542 8.56183 37.0106 8.74303 36.467 8.96953C36.2858 9.06013 36.1046 9.10543 35.9234 9.19603H35.6969C35.4703 9.19603 35.3797 9.01483 35.3797 8.69773V7.97292C35.3797 7.79172 35.425 7.61051 35.4703 7.42931C35.6063 7.29341 35.7422 7.15751 35.9234 7.11221C36.5576 6.7951 37.1918 6.5686 37.8713 6.3874C38.6414 6.2062 39.4568 6.07029 40.3175 6.07029C41.7671 5.93439 43.262 6.3874 44.3946 7.33871C45.3459 8.38062 45.7989 9.78494 45.7083 11.1893V16.2176H45.7536V16.2176ZM39.4115 18.6186C39.9551 18.6186 40.4987 18.528 41.0423 18.3468C41.6312 18.1656 42.1295 17.8031 42.4919 17.3501C42.7184 17.0783 42.8996 16.7612 43.0355 16.3988C43.1261 15.9458 43.1714 15.4928 43.1714 15.0398V14.4056C42.7184 14.315 42.2201 14.2244 41.7218 14.1338C41.2235 14.0885 40.7705 14.0432 40.2722 14.0432C39.4568 13.9979 38.6414 14.2244 37.9619 14.6774C37.4636 15.1304 37.1918 15.7646 37.2371 16.3988C37.1918 16.9877 37.4183 17.6219 37.826 18.0297C38.2337 18.4374 38.8226 18.6186 39.4115 18.6186ZM51.9145 20.2947C51.688 20.2947 51.5068 20.2494 51.3256 20.1588C51.1444 19.9776 51.0538 19.7964 51.0085 19.5699L47.3844 7.51991C47.2938 7.33871 47.2485 7.11221 47.2485 6.8857C47.2032 6.7045 47.3391 6.5233 47.5203 6.5233C47.5656 6.5233 47.5656 6.5233 47.6109 6.5233H49.1511C49.3776 6.5233 49.5588 6.5686 49.74 6.6592C49.8759 6.8404 50.0118 7.02161 50.0571 7.24811L52.6846 17.5313L55.0855 7.24811C55.1308 7.02161 55.2214 6.7951 55.4026 6.6592C55.5838 6.5233 55.8103 6.478 56.0368 6.5233H57.3052C57.5317 6.5233 57.7582 6.5686 57.9394 6.6592C58.1206 6.8404 58.2112 7.02161 58.2565 7.24811L60.7028 17.6672L63.4208 7.24811C63.4661 7.02161 63.602 6.7951 63.7379 6.6592C63.9191 6.5233 64.1456 6.478 64.3268 6.5233H65.7764C65.9576 6.478 66.1388 6.6139 66.1388 6.7951C66.1388 6.8404 66.1388 6.8404 66.1388 6.8857C66.1388 6.97631 66.1388 7.06691 66.1388 7.11221C66.0935 7.24811 66.0935 7.38401 66.0482 7.47461L62.2883 19.5246C62.243 19.7511 62.1071 19.9776 61.9712 20.1135C61.79 20.2494 61.5635 20.2947 61.3823 20.2494H60.0233C59.7968 20.2947 59.5703 20.2041 59.3891 20.0682C59.2079 19.887 59.1173 19.6605 59.072 19.434L56.6257 9.42254L54.1795 19.4793C54.1342 19.7058 54.0436 19.9323 53.8624 20.1135C53.6812 20.2494 53.4547 20.2947 53.2282 20.2947H51.9145ZM71.892 20.7024C71.0766 20.7024 70.2612 20.6118 69.4911 20.4306C68.8569 20.2947 68.268 20.1135 67.6791 19.7964C67.3167 19.6605 67.0902 19.2981 67.0902 18.9357V18.1203C67.0902 17.8031 67.2261 17.6219 67.4526 17.6219C67.5432 17.6219 67.6338 17.6219 67.7244 17.6672L68.1321 17.8484C68.6757 18.075 69.2646 18.2562 69.8535 18.3921C70.4877 18.528 71.0766 18.5733 71.7108 18.5733C72.4809 18.6186 73.2963 18.4374 73.9759 18.075C74.4742 17.7578 74.7913 17.2142 74.7913 16.6253C74.7913 16.2176 74.6554 15.8099 74.3836 15.5381C73.9305 15.1304 73.3416 14.8586 72.7527 14.7227L70.4877 13.9979C69.5364 13.7261 68.6757 13.1825 68.0415 12.4124C67.5432 11.7782 67.2714 10.9628 67.2714 10.1473C67.2714 9.55844 67.4073 8.92423 67.6791 8.42592C67.9509 7.92762 68.3586 7.47461 68.8116 7.15751C69.3099 6.7951 69.8082 6.5233 70.3971 6.3421C71.0313 6.16089 71.7108 6.07029 72.345 6.07029C72.7074 6.07029 73.0245 6.07029 73.3869 6.11559C73.7493 6.16089 74.0665 6.2062 74.3836 6.2968C74.7007 6.3874 75.0178 6.4327 75.2896 6.5233C75.5161 6.6139 75.7426 6.7045 75.9238 6.7951C76.105 6.8857 76.2409 7.02161 76.3768 7.15751C76.4674 7.29341 76.5127 7.47461 76.5127 7.65581V8.38062C76.5127 8.69773 76.3768 8.87893 76.1503 8.87893C75.9238 8.83363 75.7426 8.78833 75.5614 8.69773C74.6101 8.29002 73.6134 8.06352 72.5715 8.10882C71.8467 8.06352 71.1219 8.24472 70.4877 8.56183C69.9894 8.83363 69.7176 9.37724 69.7629 9.96614C69.7629 10.3739 69.8988 10.7816 70.2159 11.0534C70.7142 11.4611 71.3031 11.7329 71.9373 11.9141L74.1571 12.5936C75.1084 12.8201 75.9238 13.3637 76.558 14.0885C77.0563 14.7227 77.3281 15.5381 77.2828 16.3535C77.2828 16.9877 77.1469 17.6219 76.8751 18.1656C76.6033 18.7092 76.1956 19.1622 75.7426 19.5246C75.2443 19.9323 74.6554 20.2041 74.0211 20.3853C73.3869 20.6118 72.6621 20.7024 71.892 20.7024Z"
      fill="white"/>
    <path
      d="M45.7536 16.2176C45.7536 16.6706 45.7989 17.1689 45.9348 17.6219C46.0707 17.9844 46.2519 18.3921 46.4331 18.7545C46.5237 18.8451 46.5237 18.981 46.5237 19.1169C46.5237 19.2981 46.3878 19.4793 46.2066 19.5699L45.2553 20.2041C45.1194 20.2947 44.9835 20.34 44.8476 20.34C44.6664 20.34 44.4852 20.2494 44.3946 20.1135C44.1681 19.887 43.9869 19.6605 43.851 19.3887C43.7151 19.1169 43.5339 18.7998 43.3526 18.4374C42.2201 19.8417 40.544 20.6118 38.7773 20.6118C37.6448 20.6571 36.5123 20.2947 35.6515 19.4793C34.8814 18.6639 34.4737 17.5766 34.519 16.4894C34.4737 15.2663 34.972 14.0885 35.8781 13.3184C36.9653 12.4577 38.3243 12.05 39.6833 12.0953C40.2269 12.0953 40.7705 12.1406 41.3141 12.2312C41.903 12.3218 42.4919 12.4124 43.0808 12.5483V11.4158C43.1714 10.5098 42.8996 9.60374 42.356 8.92423C41.6312 8.38062 40.7252 8.10882 39.8192 8.19942C39.2756 8.19942 38.6867 8.29002 38.1431 8.42592C37.5542 8.56183 37.0106 8.74303 36.467 8.96953C36.2858 9.06013 36.1046 9.10543 35.9234 9.19603H35.6969C35.4703 9.19603 35.3797 9.01483 35.3797 8.69773V7.97292C35.3797 7.79172 35.425 7.61051 35.4703 7.42931C35.6063 7.29341 35.7422 7.15751 35.9234 7.11221C36.5576 6.7951 37.1918 6.5686 37.8713 6.3874C38.6414 6.2062 39.4568 6.07029 40.3175 6.07029C41.7671 5.93439 43.262 6.3874 44.3946 7.33871C45.3459 8.38062 45.7989 9.78494 45.7083 11.1893V16.2176H45.7536V16.2176ZM39.4115 18.6186C39.9551 18.6186 40.4987 18.528 41.0423 18.3468C41.6312 18.1656 42.1295 17.8031 42.4919 17.3501C42.7184 17.0783 42.8996 16.7612 43.0355 16.3988C43.1261 15.9458 43.1714 15.4928 43.1714 15.0398V14.4056C42.7184 14.315 42.2201 14.2244 41.7218 14.1338C41.2235 14.0885 40.7705 14.0432 40.2722 14.0432C39.4568 13.9979 38.6414 14.2244 37.9619 14.6774C37.4636 15.1304 37.1918 15.7646 37.2371 16.3988C37.1918 16.9877 37.4183 17.6219 37.826 18.0297C38.2337 18.4374 38.8226 18.6186 39.4115 18.6186ZM51.9145 20.2947C51.688 20.2947 51.5068 20.2494 51.3256 20.1588C51.1444 19.9776 51.0538 19.7964 51.0085 19.5699L47.3844 7.51991C47.2938 7.33871 47.2485 7.11221 47.2485 6.8857C47.2032 6.7045 47.3391 6.5233 47.5203 6.5233C47.5656 6.5233 47.5656 6.5233 47.6109 6.5233H49.1511C49.3776 6.5233 49.5588 6.5686 49.74 6.6592C49.8759 6.8404 50.0118 7.02161 50.0571 7.24811L52.6846 17.5313L55.0855 7.24811C55.1308 7.02161 55.2214 6.7951 55.4026 6.6592C55.5838 6.5233 55.8103 6.478 56.0368 6.5233H57.3052C57.5317 6.5233 57.7582 6.5686 57.9394 6.6592C58.1206 6.8404 58.2112 7.02161 58.2565 7.24811L60.7028 17.6672L63.4208 7.24811C63.4661 7.02161 63.602 6.7951 63.7379 6.6592C63.9191 6.5233 64.1456 6.478 64.3268 6.5233H65.7764C65.9576 6.478 66.1388 6.6139 66.1388 6.7951C66.1388 6.8404 66.1388 6.8404 66.1388 6.8857C66.1388 6.97631 66.1388 7.06691 66.1388 7.11221C66.0935 7.24811 66.0935 7.38401 66.0482 7.47461L62.2883 19.5246C62.243 19.7511 62.1071 19.9776 61.9712 20.1135C61.79 20.2494 61.5635 20.2947 61.3823 20.2494H60.0233C59.7968 20.2947 59.5703 20.2041 59.3891 20.0682C59.2079 19.887 59.1173 19.6605 59.072 19.434L56.6257 9.42254L54.1795 19.4793C54.1342 19.7058 54.0436 19.9323 53.8624 20.1135C53.6812 20.2494 53.4547 20.2947 53.2282 20.2947H51.9145ZM71.892 20.7024C71.0766 20.7024 70.2612 20.6118 69.4911 20.4306C68.8569 20.2947 68.268 20.1135 67.6791 19.7964C67.3167 19.6605 67.0902 19.2981 67.0902 18.9357V18.1203C67.0902 17.8031 67.2261 17.6219 67.4526 17.6219C67.5432 17.6219 67.6338 17.6219 67.7244 17.6672L68.1321 17.8484C68.6757 18.075 69.2646 18.2562 69.8535 18.3921C70.4877 18.528 71.0766 18.5733 71.7108 18.5733C72.4809 18.6186 73.2963 18.4374 73.9759 18.075C74.4742 17.7578 74.7913 17.2142 74.7913 16.6253C74.7913 16.2176 74.6554 15.8099 74.3836 15.5381C73.9305 15.1304 73.3416 14.8586 72.7527 14.7227L70.4877 13.9979C69.5364 13.7261 68.6757 13.1825 68.0415 12.4124C67.5432 11.7782 67.2714 10.9628 67.2714 10.1473C67.2714 9.55844 67.4073 8.92423 67.6791 8.42592C67.9509 7.92762 68.3586 7.47461 68.8116 7.15751C69.3099 6.7951 69.8082 6.5233 70.3971 6.3421C71.0313 6.16089 71.7108 6.07029 72.345 6.07029C72.7074 6.07029 73.0245 6.07029 73.3869 6.11559C73.7493 6.16089 74.0665 6.2062 74.3836 6.2968C74.7007 6.3874 75.0178 6.4327 75.2896 6.5233C75.5161 6.6139 75.7426 6.7045 75.9238 6.7951C76.105 6.8857 76.2409 7.02161 76.3768 7.15751C76.4674 7.29341 76.5127 7.47461 76.5127 7.65581V8.38062C76.5127 8.69773 76.3768 8.87893 76.1503 8.87893C75.9238 8.83363 75.7426 8.78833 75.5614 8.69773C74.6101 8.29002 73.6134 8.06352 72.5715 8.10882C71.8467 8.06352 71.1219 8.24472 70.4877 8.56183C69.9894 8.83363 69.7176 9.37724 69.7629 9.96614C69.7629 10.3739 69.8988 10.7816 70.2159 11.0534C70.7142 11.4611 71.3031 11.7329 71.9373 11.9141L74.1571 12.5936C75.1084 12.8201 75.9238 13.3637 76.558 14.0885C77.0563 14.7227 77.3281 15.5381 77.2828 16.3535C77.2828 16.9877 77.1469 17.6219 76.8751 18.1656C76.6033 18.7092 76.1956 19.1622 75.7426 19.5246C75.2443 19.9323 74.6554 20.2041 74.0211 20.3853C73.3869 20.6118 72.6621 20.7024 71.892 20.7024Z"
      fill="white"/>
    <path
      d="M84.3044 20.4306C84.0326 20.4306 83.8967 20.2947 83.8967 20.0229V6.97631C83.8967 6.70451 84.0326 6.56861 84.3044 6.56861H84.8027C85.0745 6.56861 85.2104 6.70451 85.2557 6.97631L85.3463 8.06353C86.1165 7.42932 86.9319 6.97631 87.7926 6.61391C88.6533 6.2515 89.4687 6.1156 90.2841 6.1156C91.9149 6.1156 92.9568 6.84041 93.5005 8.24473C94.3159 7.56522 95.1766 7.02161 96.0826 6.65921C96.9886 6.2968 97.8946 6.1156 98.8006 6.1156C99.9784 6.1156 100.884 6.47801 101.519 7.20281C102.153 7.92762 102.425 8.96954 102.425 10.3286V20.0229C102.425 20.2947 102.289 20.4306 102.017 20.4306H101.292C101.02 20.4306 100.884 20.2947 100.884 20.0229V11.0081C100.884 9.83025 100.703 8.92424 100.296 8.38063C99.8878 7.83702 99.2989 7.56522 98.4382 7.56522C96.8074 7.56522 95.2672 8.15413 93.7723 9.28664C93.8176 9.73965 93.8629 10.1474 93.8629 10.6004V20.0229C93.8629 20.2947 93.727 20.4306 93.4552 20.4306H92.7756C92.5038 20.4306 92.3679 20.2947 92.3679 20.0229V11.0081C92.3679 9.83025 92.1867 8.92424 91.779 8.38063C91.3713 7.83702 90.7824 7.56522 89.9217 7.56522C88.3362 7.56522 86.796 8.10883 85.3463 9.24134V20.0229C85.3463 20.2947 85.2104 20.4306 84.9386 20.4306H84.3044Z"
      fill="white"/>
    <path
      d="M108.812 20.7477C107.634 20.7477 106.683 20.3853 106.003 19.6605C105.324 18.9357 104.961 17.9391 104.961 16.7612C104.961 15.4022 105.369 14.3603 106.23 13.5902C107.091 12.8201 108.268 12.4124 109.718 12.4124C110.851 12.4124 112.074 12.6389 113.387 13.0466V10.7363C113.387 9.60375 113.161 8.78834 112.663 8.33533C112.164 7.83702 111.349 7.61052 110.216 7.61052C109.038 7.61052 107.815 7.83702 106.456 8.29003C106.32 8.33533 106.185 8.38063 106.049 8.38063C105.867 8.38063 105.777 8.24473 105.777 8.01823V7.56522C105.777 7.42932 105.822 7.29342 105.867 7.20281C105.913 7.11221 106.003 7.06691 106.139 6.97631C107.498 6.3874 108.903 6.1156 110.443 6.1156C111.983 6.1156 113.07 6.47801 113.795 7.15751C114.52 7.83702 114.882 8.87894 114.882 10.238V20.0229C114.882 20.2947 114.746 20.4306 114.475 20.4306H113.931C113.659 20.4306 113.523 20.2947 113.523 20.0229L113.433 18.8451C111.938 20.1135 110.397 20.7477 108.812 20.7477ZM108.993 19.2981C109.627 19.2981 110.352 19.1622 111.077 18.8904C111.847 18.6186 112.572 18.2109 113.342 17.6673V14.2244C112.21 13.9073 111.077 13.7261 109.99 13.7261C107.589 13.7261 106.411 14.7227 106.411 16.7159C106.411 17.5767 106.638 18.2109 107.045 18.6639C107.544 19.0716 108.178 19.2981 108.993 19.2981Z"
      fill="white"/>
    <path
      d="M118.687 20.4306C118.416 20.4306 118.28 20.2947 118.28 20.0229V6.97635C118.28 6.70454 118.416 6.56864 118.687 6.56864H119.186C119.458 6.56864 119.594 6.70454 119.639 6.97635L119.775 8.56187C120.409 7.79176 121.043 7.24815 121.677 6.93105C122.312 6.61394 122.991 6.43274 123.806 6.43274C124.078 6.43274 124.305 6.43274 124.486 6.47804C124.758 6.47804 124.894 6.65924 124.894 6.93105V7.61055C124.894 7.70116 124.848 7.74646 124.803 7.83706C124.758 7.88236 124.667 7.92766 124.577 7.92766C124.441 7.92766 124.305 7.92766 124.169 7.92766C124.033 7.92766 123.852 7.92766 123.625 7.92766C122.855 7.92766 122.13 8.06356 121.541 8.38066C120.953 8.69777 120.364 9.19608 119.775 9.92088V20.0682C119.775 20.34 119.639 20.4759 119.367 20.4759H118.687V20.4306Z"
      fill="white"/>
    <path
      d="M127.34 20.4306C127.068 20.4306 126.932 20.2947 126.932 20.0229V0.407705C126.932 0.135902 127.068 0 127.34 0H128.019C128.291 0 128.427 0.135902 128.427 0.407705V12.7295L134.588 6.84039C134.769 6.65919 134.996 6.56859 135.222 6.56859H136.128C136.355 6.56859 136.445 6.65919 136.445 6.79509C136.445 6.88569 136.355 7.02159 136.173 7.20279L129.967 13.0919L136.717 19.7964C136.853 19.9323 136.944 20.0682 136.944 20.1588C136.944 20.34 136.853 20.4306 136.626 20.4306H135.539C135.313 20.4306 135.132 20.34 134.996 20.2041L128.472 13.6355V20.0229C128.472 20.2947 128.336 20.4306 128.065 20.4306C128.065 20.4306 127.34 20.4306 127.34 20.4306Z"
      fill="white"/>
    <path
      d="M143.829 20.8383C141.791 20.8383 140.251 20.2041 139.209 18.981C138.167 17.7578 137.668 15.9005 137.668 13.4543C137.668 11.144 138.167 9.33193 139.209 8.06351C140.251 6.7951 141.7 6.16089 143.558 6.16089C145.098 6.16089 146.321 6.65919 147.136 7.61051C147.952 8.56182 148.405 9.92084 148.405 11.7329C148.405 12.4577 148.359 13.0013 148.314 13.409C148.269 13.6808 148.133 13.8167 147.861 13.8167H139.163C139.163 15.7646 139.571 17.1689 140.341 18.1202C141.111 19.0263 142.289 19.4793 143.92 19.4793C145.143 19.4793 146.321 19.2528 147.453 18.7998C147.68 18.7092 147.816 18.6639 147.906 18.6639C147.997 18.6639 148.042 18.7092 148.088 18.7545C148.133 18.7998 148.178 18.8904 148.178 18.981V19.3887C148.178 19.7058 148.088 19.887 147.906 19.9776C146.638 20.5212 145.324 20.8383 143.829 20.8383ZM147 12.4577C147 12.1859 147.046 11.9141 147.046 11.5517C147.046 10.2379 146.729 9.24133 146.14 8.56182C145.551 7.88231 144.645 7.51991 143.512 7.51991C140.794 7.51991 139.39 9.15073 139.209 12.4577H147Z"
      fill="white"/>
    <path
      d="M155.381 20.6118C154.384 20.6118 153.614 20.34 153.071 19.7511C152.527 19.1622 152.255 18.3468 152.255 17.2142V7.92762H150.217C149.945 7.92762 149.809 7.79172 149.809 7.51992V7.24811C149.809 7.11221 149.854 6.97631 149.9 6.93101C149.945 6.84041 150.036 6.79511 150.217 6.79511L152.301 6.61391L152.482 2.98986C152.482 2.85396 152.527 2.71806 152.618 2.67275C152.663 2.62745 152.754 2.58215 152.89 2.58215H153.343C153.614 2.58215 153.75 2.71806 153.75 2.98986V6.61391H157.465C157.737 6.61391 157.873 6.74981 157.873 7.02161V7.56522C157.873 7.83702 157.737 7.97292 157.465 7.97292H153.75V17.1689C153.75 17.9391 153.886 18.4374 154.203 18.7545C154.52 19.0716 155.019 19.2075 155.698 19.2075C156.196 19.2075 156.649 19.1622 157.012 19.0716C157.193 19.0263 157.329 18.981 157.465 18.981C157.555 18.9357 157.646 18.9357 157.691 18.9357C157.873 18.9357 157.963 19.0263 157.963 19.2528V19.6605C157.963 19.9776 157.873 20.1588 157.691 20.2494C157.012 20.4759 156.242 20.6118 155.381 20.6118Z"
      fill="white"/>
    <path
      d="M160.636 26.1384C160.364 26.1384 160.228 26.0025 160.228 25.7307V6.9763C160.228 6.7045 160.364 6.56859 160.636 6.56859H161.134C161.406 6.56859 161.542 6.7045 161.587 6.9763L161.678 8.10881C162.448 7.4293 163.218 6.931 163.988 6.61389C164.758 6.29679 165.483 6.16089 166.299 6.16089C167.975 6.16089 169.288 6.7951 170.24 8.06351C171.191 9.33193 171.689 11.0987 171.689 13.3184C171.689 15.5834 171.191 17.3954 170.194 18.7545C169.198 20.1135 167.839 20.793 166.117 20.793C164.532 20.793 163.082 20.1588 161.814 18.9357V25.776C161.814 26.0479 161.678 26.1837 161.406 26.1837H160.636V26.1384V26.1384ZM165.891 19.2981C167.295 19.2981 168.337 18.7998 169.062 17.8031C169.787 16.8065 170.149 15.3569 170.149 13.409C170.149 9.51313 168.79 7.56521 166.027 7.56521C164.622 7.56521 163.173 8.15411 161.768 9.33193V17.4407C162.448 18.0749 163.173 18.5733 163.807 18.8451C164.441 19.1169 165.166 19.2981 165.891 19.2981Z"
      fill="white"/>
    <path
      d="M176.718 20.5212C176.038 20.5212 175.495 20.2947 175.132 19.887C174.724 19.434 174.543 18.845 174.543 18.0749V0.407705C174.543 0.135902 174.679 0 174.951 0H175.63C175.902 0 176.038 0.135902 176.038 0.407705V18.0296C176.038 18.4373 176.129 18.7091 176.265 18.8903C176.401 19.0715 176.672 19.1168 177.035 19.1168C177.125 19.1168 177.261 19.1168 177.397 19.0715C177.533 19.0715 177.624 19.0262 177.714 19.0262C177.941 19.0262 178.077 19.1622 178.077 19.434V19.9776C178.077 20.2041 177.986 20.34 177.76 20.3853C177.397 20.4759 177.08 20.5212 176.718 20.5212Z"
      fill="white"/>
    <path
      d="M183.649 20.7477C182.471 20.7477 181.52 20.3853 180.84 19.6605C180.161 18.9357 179.798 17.9391 179.798 16.7612C179.798 15.4022 180.206 14.3603 181.067 13.5902C181.927 12.8201 183.105 12.4124 184.555 12.4124C185.687 12.4124 186.91 12.6389 188.224 13.0466V10.7363C188.224 9.60375 187.998 8.78834 187.499 8.33533C187.001 7.83702 186.185 7.61052 185.053 7.61052C183.875 7.61052 182.652 7.83702 181.293 8.29003C181.157 8.33533 181.021 8.38063 180.885 8.38063C180.704 8.38063 180.614 8.24473 180.614 8.01823V7.56522C180.614 7.42932 180.659 7.29342 180.704 7.20281C180.749 7.11221 180.84 7.06691 180.976 6.97631C182.335 6.3874 183.739 6.1156 185.279 6.1156C186.82 6.1156 187.907 6.47801 188.632 7.15751C189.357 7.83702 189.719 8.87894 189.719 10.238V20.0229C189.719 20.2947 189.583 20.4306 189.311 20.4306H188.768C188.496 20.4306 188.36 20.2947 188.36 20.0229L188.269 18.8451C186.774 20.1135 185.234 20.7477 183.649 20.7477ZM183.83 19.2981C184.464 19.2981 185.189 19.1622 185.914 18.8904C186.684 18.6186 187.409 18.2109 188.179 17.6673V14.2244C187.046 13.9073 185.914 13.7261 184.826 13.7261C182.426 13.7261 181.248 14.7227 181.248 16.7159C181.248 17.5767 181.474 18.2109 181.882 18.6639C182.38 19.0716 183.014 19.2981 183.83 19.2981Z"
      fill="white"/>
    <path
      d="M198.598 20.7477C196.605 20.7477 195.11 20.1134 194.068 18.8903C193.026 17.6672 192.528 15.8552 192.528 13.4996C192.528 11.1439 193.071 9.3319 194.113 8.10879C195.155 6.88567 196.695 6.25146 198.643 6.25146C199.594 6.25146 200.5 6.43267 201.361 6.79507C201.588 6.88567 201.678 7.06688 201.678 7.38398V7.79169C201.678 8.01819 201.588 8.15409 201.361 8.15409C201.316 8.15409 201.225 8.15409 201.18 8.10879C201.089 8.10879 200.999 8.06349 200.818 8.01819C200.138 7.83699 199.459 7.74638 198.779 7.74638C197.148 7.74638 195.97 8.19939 195.246 9.1054C194.521 10.0114 194.158 11.4157 194.158 13.409V13.7261C194.158 15.6287 194.521 17.033 195.246 17.9843C195.97 18.8903 197.148 19.3433 198.734 19.3433C199.413 19.3433 200.138 19.2074 200.954 18.9809C201.135 18.9356 201.271 18.8903 201.361 18.8903C201.452 18.8903 201.497 18.845 201.542 18.845C201.769 18.845 201.86 18.9809 201.86 19.2074V19.6151C201.86 19.9322 201.769 20.1134 201.588 20.204C200.591 20.5212 199.64 20.7477 198.598 20.7477Z"
      fill="white"/>
    <path
      d="M209.425 20.8383C207.386 20.8383 205.846 20.2041 204.804 18.981C203.762 17.7578 203.264 15.9005 203.264 13.4543C203.264 11.144 203.762 9.33193 204.804 8.06351C205.846 6.7951 207.295 6.16089 209.153 6.16089C210.693 6.16089 211.916 6.65919 212.731 7.61051C213.547 8.56182 214 9.92084 214 11.7329C214 12.4577 213.955 13.0013 213.909 13.409C213.864 13.6808 213.728 13.8167 213.456 13.8167H204.759C204.759 15.7646 205.166 17.1689 205.936 18.1202C206.707 19.0263 207.884 19.4793 209.515 19.4793C210.738 19.4793 211.916 19.2528 213.049 18.7998C213.275 18.7092 213.411 18.6639 213.502 18.6639C213.592 18.6639 213.638 18.7092 213.683 18.7545C213.728 18.7998 213.773 18.8904 213.773 18.981V19.3887C213.773 19.7058 213.683 19.887 213.502 19.9776C212.233 20.5212 210.874 20.8383 209.425 20.8383ZM212.596 12.4577C212.596 12.1859 212.641 11.9141 212.641 11.5517C212.641 10.2379 212.324 9.24133 211.735 8.56182C211.146 7.88231 210.24 7.51991 209.107 7.51991C206.389 7.51991 204.985 9.15073 204.804 12.4577H212.596Z"
      fill="white"/>
    <path
      d="M6.07021 25.1418C7.09599 25.1418 7.92754 24.3102 7.92754 23.2844C7.92754 22.2587 7.09599 21.4271 6.07021 21.4271C5.04444 21.4271 4.21289 22.2587 4.21289 23.2844C4.21289 24.3102 5.04444 25.1418 6.07021 25.1418Z"
      fill="white"/>
    <path
      d="M16.7611 25.1418C17.7869 25.1418 18.6185 24.3102 18.6185 23.2844C18.6185 22.2587 17.7869 21.4271 16.7611 21.4271C15.7354 21.4271 14.9038 22.2587 14.9038 23.2844C14.9038 24.3102 15.7354 25.1418 16.7611 25.1418Z"
      fill="white"/>
    <path
      d="M28.9471 5.97974H20.6118L17.3048 17.3049H5.25487L3.17104 10.6457H0L3.30694 20.5665H19.2528L23.0127 8.51657H28.9471V5.97974Z"
      fill="white"/>
    <path d="M11.6875 8.01822L15.3115 9.69434L18.8903 3.94116H11.6875V8.01822Z" fill="#00A5CB"/>
    <path d="M18.8903 8.01822L15.3115 9.69434V3.94116H18.8903V8.01822Z" fill="#008EBA"/>
    <path d="M15.3115 2.12915L11.6875 3.94117L15.3115 5.572L18.8903 3.94117L15.3115 2.12915Z" fill="#36C1DA"/>
    <path d="M3.53345 8.01822L7.15749 9.69434L10.7362 3.94116H3.53345V8.01822Z" fill="#F17C22"/>
    <path d="M10.7362 8.01822L7.15747 9.69434V3.94116H10.7362V8.01822Z" fill="#E66024"/>
    <path d="M7.15749 2.12915L3.53345 3.94117L7.15749 5.572L10.7362 3.94117L7.15749 2.12915Z" fill="#F7972A"/>
    <path d="M7.6106 14.7227L11.2346 16.3988L14.8134 10.5098H7.6106V14.7227Z" fill="#1D66B0"/>
    <path d="M14.8134 14.7227L11.2346 16.3988V10.5098H14.8134V14.7227Z" fill="#13509F"/>
    <path d="M11.2346 8.83362L14.8134 10.5097L11.2346 12.2765L7.6106 10.5097L11.2346 8.83362Z" fill="#177EBC"/>
  </g>
  <defs>
    <clipPath id="clip0_238_1416">
      <rect width="214" height="26.1837" fill="white"/>
    </clipPath>
  </defs>
</svg>
