<svg width="40" height="26" viewBox="0 0 40 26" fill="none" xmlns="http://www.w3.org/2000/svg">
  <path d="M18.8633 25.9453H36.2803C37.5358 25.9453 38.4043 25.7471 38.8857 25.3506C39.3766 24.9635 39.6221 24.4207 39.6221 23.7222C39.6221 22.8159 39.3389 21.8672 38.7725 20.876C38.2155 19.8753 37.4084 18.9408 36.3511 18.0723C35.3032 17.2038 34.0382 16.5005 32.5562 15.9624C31.0741 15.4149 29.4126 15.1411 27.5718 15.1411C25.7404 15.1411 24.0837 15.4149 22.6016 15.9624C21.1195 16.5005 19.8498 17.2038 18.7925 18.0723C17.7446 18.9408 16.9375 19.8753 16.3711 20.876C15.8141 21.8672 15.5356 22.8159 15.5356 23.7222C15.5356 24.4207 15.7764 24.9635 16.2578 25.3506C16.7487 25.7471 17.6172 25.9453 18.8633 25.9453ZM27.5859 12.6631C28.6432 12.6631 29.6108 12.3799 30.4888 11.8135C31.3667 11.2471 32.0653 10.4871 32.5845 9.53369C33.1131 8.5708 33.3774 7.49463 33.3774 6.30518C33.3774 5.16292 33.1131 4.11979 32.5845 3.17578C32.0558 2.23177 31.3525 1.486 30.4746 0.938477C29.6061 0.38151 28.6432 0.103027 27.5859 0.103027C26.5286 0.103027 25.561 0.38151 24.6831 0.938477C23.8052 1.49544 23.1019 2.24593 22.5732 3.18994C22.0446 4.13395 21.7803 5.1818 21.7803 6.3335C21.7897 7.51351 22.054 8.58024 22.5732 9.53369C23.0924 10.4871 23.791 11.2471 24.6689 11.8135C25.5469 12.3799 26.5192 12.6631 27.5859 12.6631ZM3.44287 25.9453H13.8081C13.4211 25.3883 13.2087 24.7275 13.1709 23.9629C13.1426 23.1982 13.2747 22.3911 13.5674 21.5415C13.8695 20.6825 14.3132 19.8423 14.8984 19.021C15.4932 18.1903 16.2153 17.4303 17.0649 16.7412C16.3097 16.2692 15.4271 15.8774 14.417 15.5659C13.4163 15.2544 12.3118 15.0986 11.1035 15.0986C9.5459 15.0986 8.12516 15.3535 6.84131 15.8633C5.55745 16.373 4.44824 17.0433 3.51367 17.874C2.58854 18.6953 1.87109 19.5921 1.36133 20.5645C0.861003 21.5273 0.61084 22.4761 0.61084 23.4106C0.61084 24.2036 0.818522 24.8219 1.23389 25.2656C1.65869 25.7188 2.39502 25.9453 3.44287 25.9453ZM11.1035 12.9746C12.0286 12.9746 12.8735 12.7292 13.6382 12.2383C14.4028 11.7474 15.0117 11.0866 15.4648 10.2559C15.918 9.41569 16.1445 8.48112 16.1445 7.45215C16.1445 6.44206 15.9132 5.53109 15.4507 4.71924C14.9976 3.89795 14.3887 3.24658 13.624 2.76514C12.8594 2.27425 12.0192 2.02881 11.1035 2.02881C10.1878 2.02881 9.34766 2.27425 8.58301 2.76514C7.81836 3.25602 7.20475 3.91211 6.74219 4.7334C6.27962 5.55469 6.05306 6.46566 6.0625 7.46631C6.0625 8.48584 6.28906 9.41569 6.74219 10.2559C7.19531 11.0866 7.8042 11.7474 8.56885 12.2383C9.3335 12.7292 10.1784 12.9746 11.1035 12.9746Z" fill="url(#paint0_linear_542_3113)"/>
  <defs>
    <linearGradient id="paint0_linear_542_3113" x1="-3" y1="12.5" x2="44" y2="12.5" gradientUnits="userSpaceOnUse">
      <stop stop-color="#FFC53D"/>
      <stop offset="1" stop-color="#FF9900"/>
    </linearGradient>
  </defs>
</svg>
