<svg width="378" height="202" viewBox="0 0 378 202" fill="none" xmlns="http://www.w3.org/2000/svg">
<path opacity="0.16" d="M78.1747 102.877C81.011 99.3016 84.56 97.3404 88.1689 97.3404C91.7778 97.3404 95.3239 99.3016 98.1301 102.833L105.12 111.895C85.0301 140.268 67.7904 164.484 63.9959 169.811L10.0679 188.632L78.1747 102.877ZM0 201.313L1.14111 199.873L70.8014 175.562L71.5711 174.482C72.5056 173.172 165.272 42.9689 185.176 12.8331C192.439 1.83121 197.887 0.130859 200.549 0.130859H200.669C205.815 0.233226 210.505 6.3194 211.733 8.43188L249.533 74.3791C249.254 74.6909 248.967 74.9863 248.7 75.319L166.04 179.412L256.828 79.22C262.503 72.0755 271.141 72.0755 276.813 79.22L359.473 183.307L378 201.314L0 201.313Z" fill="url(#paint0_radial_2852_22480)"/>
<defs>
<radialGradient id="paint0_radial_2852_22480" cx="0" cy="0" r="1" gradientUnits="userSpaceOnUse" gradientTransform="translate(189 100.722) rotate(90) scale(100.591 189)">
<stop stop-color="#443F51" stop-opacity="0"/>
<stop offset="1" stop-color="#443F51"/>
</radialGradient>
</defs>
</svg>
