<svg xmlns="http://www.w3.org/2000/svg" width="24" height="24" viewBox="0 0 24 24" fill="none">
  <g clip-path="url(#clip0_692_34390)">
    <path d="M12.6841 13.0869C11.7004 14.0713 11.7004 15.6665 12.6841 16.6509C13.6684 17.6345 15.2637 17.6345 16.2473 16.6509C17.2317 15.6665 17.2317 14.0713 16.2473 13.0869C15.2637 12.1033 13.6684 12.1033 12.6841 13.0869ZM15.3479 15.753C15.2321 15.8689 15.0946 15.9609 14.9432 16.0237C14.7918 16.0865 14.6296 16.1188 14.4657 16.1188C14.3018 16.1188 14.1395 16.0865 13.9882 16.0237C13.8368 15.9609 13.6993 15.8689 13.5835 15.753C13.4676 15.6372 13.3757 15.4997 13.313 15.3484C13.2503 15.1971 13.2181 15.0349 13.2181 14.8711C13.2181 14.7073 13.2503 14.5451 13.313 14.3938C13.3757 14.2424 13.4676 14.105 13.5835 13.9892C13.6993 13.8732 13.8368 13.7812 13.9882 13.7184C14.1395 13.6557 14.3018 13.6234 14.4657 13.6234C14.6296 13.6234 14.7918 13.6557 14.9432 13.7184C15.0946 13.7812 15.2321 13.8732 15.3479 13.9892C15.835 14.474 15.835 15.2658 15.3479 15.753ZM16.2057 0.688475L14.6616 2.23235C14.5163 2.37881 14.4347 2.57679 14.4347 2.78313C14.4347 2.98948 14.5163 3.18746 14.6616 3.33391L20.6896 9.36185C20.836 9.50721 21.034 9.58878 21.2403 9.58878C21.4467 9.58878 21.6447 9.50721 21.7911 9.36185L23.335 7.81779C23.6369 7.51591 23.6369 7.01885 23.335 6.71716L17.3044 0.688288C17.1584 0.543286 16.9609 0.461914 16.7551 0.461914C16.5492 0.461914 16.3518 0.543473 16.2057 0.688475ZM5.38843 20.4178C5.52008 20.2856 5.59399 20.1066 5.59399 19.92C5.59399 19.7334 5.52008 19.5544 5.38843 19.4222L4.60412 18.6371C4.47175 18.5055 4.29268 18.4316 4.10603 18.4316C3.91937 18.4316 3.74031 18.5055 3.60793 18.6371L1.98718 20.2588L1.98418 20.261L1.53962 19.8157C1.29343 19.5695 0.892746 19.5695 0.648996 19.8157C0.402809 20.0617 0.402809 20.4624 0.648996 20.7063L3.32012 23.3767C3.37851 23.4352 3.44787 23.4816 3.52422 23.5133C3.60056 23.545 3.68241 23.5613 3.76506 23.5613C3.84771 23.5613 3.92955 23.545 4.0059 23.5133C4.08225 23.4816 4.1516 23.4352 4.21 23.3767C4.45375 23.1305 4.45618 22.7298 4.21 22.4869L3.76468 22.0415L3.76768 22.0393L5.38843 20.4178Z" fill="#F5A800"/>
    <path d="M13.5557 5.12078L10.1257 8.55053C9.82106 8.85522 9.82106 9.35697 10.1257 9.66166L12.2437 11.7791C13.7407 10.7017 15.84 10.835 17.1868 12.1828L18.9021 10.4673C19.2062 10.1627 19.2062 9.66166 18.9021 9.35697L14.6662 5.12078C14.5934 5.04782 14.5068 4.98994 14.4116 4.95045C14.3163 4.91095 14.2142 4.89062 14.1111 4.89062C14.0079 4.89062 13.9058 4.91095 13.8106 4.95045C13.7153 4.98994 13.6286 5.04782 13.5557 5.12078ZM11.3531 12.6718L10.1021 11.4208C9.80905 11.1279 9.32868 11.1279 9.03637 11.4208L4.62449 15.8345C4.48376 15.9763 4.40479 16.1679 4.40479 16.3677C4.40479 16.5674 4.48376 16.7591 4.62449 16.9008L7.12405 19.4006C7.26582 19.5414 7.45751 19.6204 7.65731 19.6204C7.8571 19.6204 8.04879 19.5414 8.19055 19.4006L11.0278 16.5587C10.428 15.3195 10.5356 13.8225 11.3531 12.6718Z" fill="#425CC7"/>
  </g>
  <defs>
    <clipPath id="clip0_692_34390">
      <rect width="24" height="24" fill="white"/>
    </clipPath>
  </defs>
</svg>
