<svg xmlns="http://www.w3.org/2000/svg" width="20" height="24" viewBox="0 0 20 24" fill="none">
  <g clip-path="url(#clip0_692_34438)">
    <path d="M9.96078 23.84L0 17.88V5.96L9.96078 0L19.9216 5.96V17.88L9.96078 23.84ZM1.39216 17.04L9.94118 22.16L18.4902 17.04V6.8L9.96078 1.68L1.39216 6.8V17.04Z" fill="url(#paint0_linear_692_34438)"/>
    <path d="M14.2548 8.67993L10.7646 14.9399L11.9019 16.9799L16.5293 8.67993H14.2548ZM10.3529 8.67993L6.86268 14.9399L7.99993 16.9799L12.6274 8.67993H10.3529ZM3.39209 8.67993L8.01954 16.9799L9.1568 14.9399L5.6666 8.67993H3.39209ZM3.39209 8.67993L8.01954 16.9799L9.1568 14.9399L5.6666 8.67993H3.39209ZM10.3529 8.67993L6.86268 14.9399L7.99993 16.9799L12.6274 8.67993H10.3529Z" fill="url(#paint1_linear_692_34438)"/>
  </g>
  <defs>
    <linearGradient id="paint0_linear_692_34438" x1="-0.0415685" y1="17.8034" x2="20.1418" y2="6.37896" gradientUnits="userSpaceOnUse">
      <stop stop-color="#10E7FF"/>
      <stop offset="0.103" stop-color="#33D5FF"/>
      <stop offset="0.255" stop-color="#60BDFF"/>
      <stop offset="0.408" stop-color="#86AAFF"/>
      <stop offset="0.56" stop-color="#A39AFF"/>
      <stop offset="0.71" stop-color="#B790FF"/>
      <stop offset="0.858" stop-color="#C489FF"/>
      <stop offset="1" stop-color="#C887FF"/>
    </linearGradient>
    <linearGradient id="paint1_linear_692_34438" x1="6.1517" y1="13.7023" x2="16.1622" y2="8.03602" gradientUnits="userSpaceOnUse">
      <stop stop-color="#10E7FF"/>
      <stop offset="0.103" stop-color="#33D5FF"/>
      <stop offset="0.255" stop-color="#60BDFF"/>
      <stop offset="0.408" stop-color="#86AAFF"/>
      <stop offset="0.56" stop-color="#A39AFF"/>
      <stop offset="0.71" stop-color="#B790FF"/>
      <stop offset="0.858" stop-color="#C489FF"/>
      <stop offset="1" stop-color="#C887FF"/>
    </linearGradient>
    <clipPath id="clip0_692_34438">
      <rect width="20" height="24" fill="white"/>
    </clipPath>
  </defs>
</svg>
