<svg xmlns="http://www.w3.org/2000/svg" width="110" height="18" viewBox="0 0 110 18" fill="none">
  <g clip-path="url(#clip0_306_3956)">
    <path
      d="M13.3197 4.99892H13.9269L15.6572 3.26856L15.7422 2.53392C14.751 1.659 13.553 1.05122 12.2616 0.768001C10.9701 0.484781 9.62776 0.535468 8.36133 0.915273C7.09491 1.29508 5.94622 1.99146 5.02376 2.93865C4.1013 3.88583 3.43554 5.05254 3.08936 6.32856C3.28213 6.24955 3.49566 6.23673 3.6965 6.29213L7.15721 5.72142C7.15721 5.72142 7.33328 5.42999 7.42436 5.4482C8.16588 4.63382 9.19064 4.13368 10.2889 4.05015C11.3871 3.96663 12.4757 4.30604 13.3319 4.99892H13.3197Z"
      fill="#EA4335"/>
    <path
      d="M18.1223 6.32858C17.7246 4.86393 16.908 3.54722 15.7727 2.54001L13.3441 4.96858C13.8502 5.38214 14.2558 5.90524 14.5304 6.49842C14.8049 7.0916 14.9411 7.73937 14.9287 8.39287V8.82394C15.2126 8.82394 15.4936 8.87984 15.7559 8.98847C16.0181 9.09709 16.2564 9.2563 16.4571 9.45701C16.6578 9.65771 16.817 9.89599 16.9256 10.1582C17.0343 10.4205 17.0902 10.7015 17.0902 10.9854C17.0902 11.2692 17.0343 11.5503 16.9256 11.8125C16.817 12.0747 16.6578 12.313 16.4571 12.5137C16.2564 12.7144 16.0181 12.8736 15.7559 12.9823C15.4936 13.0909 15.2126 13.1468 14.9287 13.1468H10.6059L10.1748 13.5839V16.1764L10.6059 16.6075H14.9287C16.1359 16.6169 17.314 16.2375 18.2888 15.5254C19.2636 14.8134 19.9833 13.8065 20.3415 12.6536C20.6997 11.5008 20.6773 10.2633 20.2776 9.12422C19.8779 7.98511 19.1222 7.0049 18.1223 6.32858Z"
      fill="#4285F4"/>
    <path
      d="M6.27674 16.5832H10.5996V13.1225H6.27674C5.96876 13.1224 5.66438 13.0562 5.38424 12.9282L4.7771 13.1164L3.0346 14.8468L2.88281 15.4539C3.85997 16.1918 5.0523 16.5885 6.27674 16.5832Z"
      fill="#34A853"/>
    <path
      d="M6.27704 5.35715C5.10575 5.36415 3.96589 5.7368 3.01668 6.42305C2.06746 7.10931 1.35628 8.0749 0.982468 9.18496C0.608659 10.295 0.590889 11.4941 0.931639 12.6148C1.27239 13.7354 1.95464 14.7216 2.88311 15.4357L5.39061 12.9282C5.07196 12.7843 4.79299 12.5651 4.57764 12.2897C4.3623 12.0142 4.217 11.6906 4.15422 11.3466C4.09144 11.0026 4.11305 10.6485 4.21719 10.3147C4.32134 9.98093 4.50491 9.67739 4.75216 9.43014C4.99941 9.18289 5.30296 8.99931 5.63675 8.89517C5.97054 8.79102 6.32462 8.76941 6.6686 8.83219C7.01258 8.89497 7.3362 9.04027 7.61168 9.25562C7.88716 9.47096 8.10629 9.74993 8.25025 10.0686L10.7578 7.56108C10.2314 6.87304 9.55312 6.31607 8.77581 5.93374C7.9985 5.5514 7.14328 5.35406 6.27704 5.35715Z"
      fill="#FBBC05"/>
    <path
      d="M32.1049 14.1668C31.3606 14.1763 30.6221 14.0354 29.9335 13.7527C29.245 13.47 28.6206 13.0512 28.0977 12.5214C27.5584 12.0141 27.1304 11.4003 26.8409 10.7189C26.5514 10.0374 26.4067 9.30321 26.4159 8.56286C26.4071 7.82257 26.5519 7.08849 26.8414 6.40709C27.1309 5.72569 27.5587 5.11181 28.0977 4.60429C28.618 4.06903 29.2413 3.64463 29.9299 3.35664C30.6186 3.06865 31.3584 2.92304 32.1049 2.92858C32.8161 2.9191 33.5221 3.05109 34.1819 3.31687C34.8417 3.58266 35.442 3.97694 35.9481 4.47679L34.8674 5.57572C34.1273 4.86048 33.134 4.46753 32.1049 4.48286C31.571 4.47631 31.0417 4.58087 30.5504 4.78992C30.0591 4.99897 29.6167 5.30792 29.2513 5.69715C28.8715 6.07393 28.5719 6.52367 28.3705 7.0193C28.1691 7.51492 28.0702 8.04618 28.0795 8.58108C28.0751 9.10987 28.1764 9.63421 28.3777 10.1232C28.5789 10.6123 28.876 11.0561 29.2513 11.4286C30.0032 12.1778 31.0178 12.6041 32.0792 12.6166C33.1406 12.629 34.1649 12.2268 34.9342 11.4954C35.4104 10.9738 35.7026 10.3106 35.7659 9.60715H32.1231V8.05286H37.2777C37.3284 8.36589 37.3487 8.68307 37.3384 9.00001C37.3705 9.65597 37.2692 10.3116 37.0407 10.9273C36.8121 11.543 36.4611 12.106 36.0088 12.5821C35.5059 13.1057 34.8984 13.5174 34.2257 13.7905C33.553 14.0635 32.8304 14.1917 32.1049 14.1668ZM44.0899 13.1346C43.3981 13.7978 42.4769 14.168 41.5186 14.168C40.5604 14.168 39.6391 13.7978 38.9474 13.1346C38.6031 12.8008 38.3319 12.399 38.1511 11.9548C37.9703 11.5106 37.8837 11.0337 37.897 10.5543C37.8841 10.0749 37.9708 9.59811 38.1516 9.15396C38.3324 8.70981 38.6034 8.30801 38.9474 7.97393C39.6399 7.31221 40.5608 6.94294 41.5186 6.94294C42.4764 6.94294 43.3974 7.31221 44.0899 7.97393C44.4339 8.30801 44.7049 8.70981 44.8857 9.15396C45.0665 9.59811 45.1531 10.0749 45.1402 10.5543C45.1527 11.0341 45.0653 11.5113 44.8834 11.9556C44.7015 12.3998 44.4292 12.8013 44.0838 13.1346H44.0899ZM40.0827 12.1207C40.2667 12.3172 40.4891 12.4739 40.7361 12.581C40.9831 12.688 41.2494 12.7433 41.5186 12.7433C41.7878 12.7433 42.0542 12.688 42.3012 12.581C42.5481 12.4739 42.7705 12.3172 42.9545 12.1207C43.1551 11.9134 43.3122 11.6679 43.4165 11.3989C43.5208 11.1299 43.5701 10.8427 43.5617 10.5543C43.5706 10.2649 43.5215 9.97668 43.4172 9.7066C43.3129 9.43652 43.1556 9.19007 42.9545 8.98179C42.7681 8.7873 42.5442 8.63254 42.2964 8.52681C42.0486 8.42109 41.782 8.36659 41.5126 8.36659C41.2431 8.36659 40.9765 8.42109 40.7287 8.52681C40.4809 8.63254 40.257 8.7873 40.0706 8.98179C39.8695 9.19007 39.7122 9.43652 39.6079 9.7066C39.5036 9.97668 39.4545 10.2649 39.4634 10.5543C39.4558 10.8431 39.5061 11.1306 39.6114 11.3996C39.7167 11.6687 39.8749 11.9139 40.0767 12.1207H40.0827ZM51.9949 13.1346C51.3031 13.7978 50.3819 14.168 49.4236 14.168C48.4654 14.168 47.5441 13.7978 46.8524 13.1346C46.5081 12.8008 46.2369 12.399 46.0561 11.9548C45.8753 11.5106 45.7887 11.0337 45.802 10.5543C45.7891 10.0749 45.8758 9.59811 46.0566 9.15396C46.2374 8.70981 46.5084 8.30801 46.8524 7.97393C47.5441 7.31082 48.4654 6.94061 49.4236 6.94061C50.3819 6.94061 51.3031 7.31082 51.9949 7.97393C52.3389 8.30801 52.6099 8.70981 52.7907 9.15396C52.9715 9.59811 53.0581 10.0749 53.0452 10.5543C53.0585 11.0337 52.972 11.5106 52.7912 11.9548C52.6104 12.399 52.3392 12.8008 51.9949 13.1346ZM47.9877 12.1207C48.1717 12.3172 48.3941 12.4739 48.6411 12.581C48.8881 12.688 49.1544 12.7433 49.4236 12.7433C49.6928 12.7433 49.9592 12.688 50.2062 12.581C50.4531 12.4739 50.6755 12.3172 50.8595 12.1207C51.0601 11.9134 51.2172 11.6679 51.3215 11.3989C51.4258 11.1299 51.4751 10.8427 51.4667 10.5543C51.4756 10.2649 51.4265 9.97668 51.3222 9.7066C51.2179 9.43652 51.0606 9.19007 50.8595 8.98179C50.6731 8.7873 50.4492 8.63254 50.2014 8.52681C49.9536 8.42109 49.687 8.36659 49.4176 8.36659C49.1481 8.36659 48.8815 8.42109 48.6337 8.52681C48.3859 8.63254 48.162 8.7873 47.9756 8.98179C47.7745 9.19007 47.6172 9.43652 47.5129 9.7066C47.4086 9.97668 47.3595 10.2649 47.3684 10.5543C47.3608 10.8431 47.4111 11.1306 47.5164 11.3996C47.6217 11.6687 47.7799 11.9139 47.9817 12.1207H47.9877ZM57.192 17.4089C56.4643 17.4321 55.7507 17.2049 55.1702 16.7654C54.6549 16.3779 54.249 15.8633 53.9924 15.2718L55.3767 14.695C55.5273 15.0485 55.763 15.3592 56.0627 15.5996C56.3836 15.8583 56.7862 15.9939 57.1981 15.9821C57.4593 15.998 57.7209 15.9575 57.965 15.8632C58.2091 15.7689 58.43 15.6231 58.6127 15.4357C58.9785 14.9945 59.1591 14.4287 59.1167 13.8571V13.335H59.062C58.8307 13.6098 58.5385 13.8269 58.2086 13.9692C57.8788 14.1115 57.5203 14.175 57.1617 14.1546C56.7058 14.156 56.2546 14.0629 55.8366 13.881C55.4186 13.6992 55.0429 13.4326 54.7331 13.0982C54.397 12.7665 54.1316 12.37 53.9532 11.9327C53.7747 11.4954 53.6869 11.0265 53.6949 10.5543C53.6865 10.0793 53.7741 9.60755 53.9525 9.16728C54.1309 8.72701 54.3964 8.3273 54.7331 7.99215C55.0421 7.65633 55.4176 7.38846 55.8357 7.20554C56.2537 7.02263 56.7053 6.92867 57.1617 6.92965C57.5479 6.92897 57.9294 7.01399 58.2788 7.17858C58.581 7.31057 58.8505 7.50749 59.0681 7.75536H59.1227V7.17858H60.6284V13.6446C60.6681 14.1562 60.6029 14.6704 60.4369 15.1558C60.2709 15.6413 60.0076 16.0877 59.6631 16.4679C59.3349 16.7818 58.9472 17.0268 58.5228 17.1885C58.0984 17.3501 57.6459 17.4251 57.192 17.4089ZM57.3013 12.7461C57.5606 12.7518 57.8179 12.7003 58.055 12.5954C58.2922 12.4905 58.5033 12.3346 58.6734 12.1389C59.0481 11.7096 59.2455 11.1541 59.2259 10.5846C59.2484 10.0056 59.0511 9.43953 58.6734 9.00001C58.5036 8.80398 58.2925 8.64791 58.0553 8.54295C57.8181 8.438 57.5606 8.38674 57.3013 8.39286C57.035 8.38739 56.7705 8.43871 56.5255 8.5434C56.2806 8.64808 56.0607 8.80374 55.8806 9.00001C55.479 9.42373 55.2608 9.98883 55.2734 10.5725C55.2673 10.8588 55.3177 11.1435 55.4219 11.4102C55.5261 11.677 55.682 11.9205 55.8806 12.1268C56.0599 12.325 56.2793 12.4827 56.5242 12.5895C56.7692 12.6962 57.0341 12.7496 57.3013 12.7461ZM63.3059 3.33536V13.9482H61.7213V3.33536H63.3059ZM67.6531 14.1668C67.1785 14.179 66.7065 14.0931 66.2667 13.9144C65.8269 13.7358 65.4287 13.4682 65.097 13.1286C64.7605 12.7914 64.496 12.3893 64.3196 11.9468C64.1432 11.5043 64.0586 11.0305 64.0709 10.5543C64.053 10.0769 64.1314 9.60077 64.3014 9.15432C64.4714 8.70787 64.7296 8.30023 65.0606 7.95572C65.3725 7.62693 65.7496 7.36691 66.1678 7.19231C66.586 7.01771 67.0361 6.93238 67.4892 6.94179C67.9058 6.93739 68.319 7.01796 68.7034 7.17858C69.0498 7.31836 69.3653 7.52462 69.6324 7.78572C69.8617 8.00706 70.0653 8.25349 70.2395 8.52036C70.3804 8.74568 70.5003 8.98347 70.5977 9.23072L70.7617 9.64358L65.9045 11.6411C66.0514 11.9786 66.2971 12.2637 66.6093 12.4588C66.9214 12.6539 67.2853 12.7498 67.6531 12.7339C68.0109 12.7349 68.3628 12.6431 68.6746 12.4676C68.9864 12.292 69.2473 12.0386 69.432 11.7321L70.6463 12.5518C70.3364 12.9951 69.9399 13.371 69.4806 13.6568C68.9344 14.0019 68.299 14.1792 67.6531 14.1668ZM65.6252 10.445L68.8552 9.10322C68.7557 8.86663 68.5778 8.67153 68.3513 8.55072C68.0977 8.40753 67.8107 8.3342 67.5195 8.33822C67.0254 8.35102 66.5563 8.55829 66.2142 8.915C66.0094 9.11094 65.8504 9.34968 65.7486 9.61416C65.6468 9.87865 65.6047 10.1623 65.6252 10.445Z"
      fill="#5F6368"/>
    <path
      d="M79.0614 14.1668C78.3875 14.1784 77.7181 14.0537 77.0936 13.8003C76.469 13.5468 75.9022 13.1697 75.427 12.6917C74.9518 12.2137 74.5781 11.6445 74.3283 11.0185C74.0786 10.3925 73.9579 9.7224 73.9735 9.04856C73.9579 8.37472 74.0786 7.70466 74.3283 7.07862C74.5781 6.45258 74.9518 5.88346 75.427 5.40544C75.9022 4.92742 76.469 4.55034 77.0936 4.29686C77.7181 4.04338 78.3875 3.91871 79.0614 3.93034C79.7435 3.90902 80.4216 4.0421 81.045 4.31966C81.6685 4.59721 82.2211 5.01205 82.6617 5.5332L81.7874 6.3832C81.464 5.97635 81.0491 5.65158 80.5764 5.43531C80.1038 5.21904 79.5868 5.11736 79.0674 5.13856C78.5675 5.12729 78.0705 5.21722 77.6062 5.40294C77.1419 5.58866 76.7199 5.86633 76.3657 6.21927C75.9973 6.58964 75.7096 7.03216 75.5205 7.51906C75.3314 8.00595 75.245 8.52668 75.2667 9.04856C75.245 9.57043 75.3314 10.0912 75.5205 10.5781C75.7096 11.065 75.9973 11.5075 76.3657 11.8778C76.7199 12.2308 77.1419 12.5085 77.6062 12.6942C78.0705 12.8799 78.5675 12.9698 79.0674 12.9586C79.6477 12.9651 80.2219 12.8407 80.7475 12.5947C81.273 12.3488 81.7364 11.9875 82.1032 11.5378L82.9774 12.4121C82.5197 12.9595 81.945 13.3973 81.2957 13.6932C80.5957 14.0163 79.8322 14.1782 79.0614 14.1668Z"
      fill="#5F6368"/>
    <path d="M85.3271 13.9482H84.0703V4.14285H85.3271V13.9482Z" fill="#5F6368"/>
    <path
      d="M87.3793 8.04679C88.0379 7.39277 88.9283 7.02573 89.8565 7.02573C90.7846 7.02573 91.6751 7.39277 92.3336 8.04679C92.6556 8.3868 92.9073 8.78714 93.074 9.22478C93.2407 9.66241 93.3192 10.1287 93.305 10.5968C93.3192 11.0649 93.2407 11.5312 93.074 11.9688C92.9073 12.4064 92.6556 12.8068 92.3336 13.1468C91.6751 13.8008 90.7846 14.1679 89.8565 14.1679C88.9283 14.1679 88.0379 13.8008 87.3793 13.1468C87.0573 12.8068 86.8057 12.4064 86.6389 11.9688C86.4722 11.5312 86.3937 11.0649 86.4079 10.5968C86.3937 10.1287 86.4722 9.66241 86.6389 9.22478C86.8057 8.78714 87.0573 8.3868 87.3793 8.04679ZM88.3143 12.3575C88.5123 12.5668 88.751 12.7335 89.0156 12.8474C89.2802 12.9613 89.5653 13.0201 89.8534 13.0201C90.1415 13.0201 90.4266 12.9613 90.6912 12.8474C90.9559 12.7335 91.1945 12.5668 91.3925 12.3575C91.6122 12.1218 91.7828 11.8447 91.8943 11.5424C92.0058 11.2402 92.0561 10.9187 92.0422 10.5968C92.0561 10.2749 92.0058 9.95343 91.8943 9.65114C91.7828 9.34886 91.6122 9.07179 91.3925 8.83608C91.1945 8.6268 90.9559 8.46011 90.6912 8.34619C90.4266 8.23227 90.1415 8.17352 89.8534 8.17352C89.5653 8.17352 89.2802 8.23227 89.0156 8.34619C88.751 8.46011 88.5123 8.6268 88.3143 8.83608C88.0946 9.07179 87.9241 9.34886 87.8125 9.65114C87.701 9.95343 87.6507 10.2749 87.6647 10.5968C87.6524 10.9181 87.704 11.2387 87.8165 11.5399C87.9291 11.8411 88.1004 12.1169 88.3204 12.3514L88.3143 12.3575Z"
      fill="#5F6368"/>
    <path
      d="M100.269 13.9482H99.0545V13.0193H99.018C98.8019 13.3721 98.496 13.6612 98.1316 13.8571C97.7535 14.0763 97.3241 14.1915 96.887 14.1911C96.5321 14.2154 96.1763 14.1592 95.8462 14.0267C95.5161 13.8942 95.2202 13.6889 94.9806 13.4261C94.5206 12.8443 94.2895 12.1144 94.3309 11.3739V7.24536H95.5877V11.1432C95.5877 12.3939 96.1402 13.0193 97.2452 13.0193C97.4907 13.0269 97.7345 12.9758 97.9563 12.8702C98.178 12.7646 98.3714 12.6076 98.5202 12.4121C98.8459 11.9993 99.0196 11.4869 99.012 10.9611V7.24536H100.269V13.9482Z"
      fill="#5F6368"/>
    <path
      d="M104.537 14.1668C104.111 14.1682 103.689 14.0772 103.301 13.9001C102.913 13.7229 102.569 13.4639 102.291 13.1407C101.661 12.4455 101.324 11.5343 101.349 10.5968C101.324 9.65928 101.661 8.74808 102.291 8.05285C102.569 7.72969 102.913 7.47062 103.301 7.29349C103.689 7.11636 104.111 7.02537 104.537 7.02678C105.015 7.01924 105.486 7.13199 105.909 7.35464C106.281 7.54153 106.595 7.82457 106.82 8.17428H106.874L106.82 7.24535V4.14285H108.077V13.9482H106.862V13.0193H106.808C106.583 13.369 106.268 13.652 105.897 13.8389C105.478 14.0596 105.011 14.1723 104.537 14.1668ZM104.743 13.0193C105.027 13.0234 105.309 12.9671 105.57 12.854C105.83 12.741 106.064 12.5738 106.255 12.3636C106.682 11.8774 106.9 11.2426 106.862 10.5968C106.9 9.95091 106.682 9.31612 106.255 8.83C106.063 8.61862 105.829 8.44974 105.567 8.33419C105.306 8.21863 105.023 8.15894 104.737 8.15894C104.452 8.15894 104.169 8.21863 103.908 8.33419C103.646 8.44974 103.412 8.61862 103.219 8.83C103.007 9.06909 102.845 9.3477 102.74 9.64984C102.636 9.95198 102.593 10.2717 102.612 10.5907C102.593 10.9097 102.636 11.2294 102.74 11.5316C102.845 11.8337 103.007 12.1123 103.219 12.3514C103.411 12.5654 103.646 12.7358 103.909 12.851C104.172 12.9662 104.456 13.0236 104.743 13.0193Z"
      fill="#5F6368"/>
  </g>
  <defs>
    <clipPath id="clip0_306_3956">
      <rect width="109.893" height="17" fill="white" transform="translate(0.0537109 0.5)"/>
    </clipPath>
  </defs>
</svg>
